# xmcd
#
# Track frame offsets: 
#        150
#        14325
#        29963
#        50867
#        65363
#        82013
#        103238
#        129113
#        146513
#        172538
#        188250
#        201638
#
# Disc length: 3045 seconds
#
# Revision: 0
# Processed by: cddbd v1.5.2PL0 Copyright (c) Steve Scherf et al.
# Submitted via: ExactAudioCopy v1.3
#
DISCID=a70be30c
DTITLE=Mr. Hansen Band - Temptation
DYEAR=2014
DGENRE=Blues
TTITLE0=Move on
TTITLE1=Beggin' for more
TTITLE2=Don't fall in love with a fool like me
TTITLE3=Jimmy
TTITLE4=Look out
TTITLE5=Talking to you
TTITLE6=Temptation
TTITLE7=I don't need
TTITLE8=Staying sad
TTITLE9=Getting drunk
TTITLE10=So blue
TTITLE11=Lady of the blues
EXTD=
EXTT0=
EXTT1=
EXTT2=
EXTT3=
EXTT4=
EXTT5=
EXTT6=
EXTT7=
EXTT8=
EXTT9=
EXTT10=
EXTT11=
PLAYORDER=
